<?xml version="1.0" encoding="UTF-8" standalone="no"?><!DOCTYPE svg PUBLIC "-//W3C//DTD SVG 1.1//EN" "http://www.w3.org/Graphics/SVG/1.1/DTD/svg11.dtd"><svg width="100%" height="100%" viewBox="0 0 128 128" version="1.1" xmlns="http://www.w3.org/2000/svg" xmlns:xlink="http://www.w3.org/1999/xlink" xml:space="preserve" xmlns:serif="http://www.serif.com/" style="fill-rule:evenodd;clip-rule:evenodd;stroke-linecap:round;stroke-linejoin:round;stroke-miterlimit:1.5;"><circle cx="64" cy="64" r="64" style="fill:#fff;"/><path d="M64,0c35.323,0 64,28.677 64,64c0,35.323 -28.677,64 -64,64c-35.323,0 -64,-28.677 -64,-64c0,-35.323 28.677,-64 64,-64Zm0,8c-30.907,0 -56,25.093 -56,56c0,30.907 25.093,56 56,56c30.907,0 56,-25.093 56,-56c0,-30.907 -25.093,-56 -56,-56Z"/><g><path d="M63.789,103.297c-0.116,-0 -0.21,0.094 -0.21,0.21l-0,12.572c-0,0.116 0.094,0.211 0.21,0.211l0.422,-0c0.116,-0 0.21,-0.095 0.21,-0.211l0,-12.572c0,-0.116 -0.094,-0.21 -0.21,-0.21l-0.422,-0Z" style="fill:#292929;stroke:#333;stroke-width:7px;"/><path d="M24.786,64.632c0,-0.116 -0.094,-0.211 -0.211,-0.211l-12.571,0c-0.117,0 -0.211,0.095 -0.211,0.211l0,0.422c0,0.116 0.094,0.21 0.211,0.21l12.571,0c0.117,0 0.211,-0.094 0.211,-0.21l0,-0.422Z" style="fill:#292929;stroke:#333;stroke-width:7px;"/><path d="M105.083,64.843l11.148,-0" style="fill:none;stroke:#333;stroke-width:8px;"/><path d="M63.789,11.745c-0.116,-0 -0.21,0.094 -0.21,0.21l-0,12.572c-0,0.116 0.094,0.211 0.21,0.211l0.422,-0c0.116,-0 0.21,-0.095 0.21,-0.211l0,-12.572c0,-0.116 -0.094,-0.21 -0.21,-0.21l-0.422,-0Z" style="fill:#292929;stroke:#333;stroke-width:7px;"/></g><g><path d="M103.454,25.237c-4.843,-4.843 -12.706,-4.843 -17.549,0l-30.281,30.281c-4.843,4.843 -4.843,12.707 -0,17.55c4.843,4.843 12.707,4.843 17.55,-0l30.28,-30.281c4.843,-4.843 4.843,-12.707 0,-17.55Z" style="fill:none;"/><clipPath id="_clip1"><path d="M103.454,25.237c-4.843,-4.843 -12.706,-4.843 -17.549,0l-30.281,30.281c-4.843,4.843 -4.843,12.707 -0,17.55c4.843,4.843 12.707,4.843 17.55,-0l30.28,-30.281c4.843,-4.843 4.843,-12.707 0,-17.55Z"/></clipPath><g clip-path="url(#_clip1)"><path d="M96.107,15.215l-23.882,23.882l17.55,17.549l23.882,-23.881l-17.55,-17.55Z" style="fill:#292929;"/></g><path d="M103.454,25.237c4.843,4.843 4.843,12.707 0,17.55l-30.28,30.281c-4.843,4.843 -12.707,4.843 -17.55,-0c-4.843,-4.843 -4.843,-12.707 -0,-17.55l30.281,-30.281c4.843,-4.843 12.706,-4.843 17.549,0Zm-2.828,2.829c-3.282,-3.282 -8.611,-3.282 -11.893,-0l-30.281,30.28c-3.282,3.282 -3.282,8.611 0,11.893c3.282,3.282 8.611,3.282 11.893,0l30.281,-30.281c3.282,-3.281 3.282,-8.61 -0,-11.892Z" style="fill:#292929;"/></g><g><path d="M44.553,45.395c6.998,-6.998 19.858,-5.501 28.699,3.34c8.842,8.842 10.339,21.701 3.34,28.7c-6.998,6.998 -19.857,5.501 -28.699,-3.34c-8.841,-8.842 -10.338,-21.702 -3.34,-28.7Z" style="fill:#222;"/><path d="M47.893,74.095c-9.65,-9.408 -22.968,-47.866 -23.728,-49.088c1.935,0.823 37.732,13.819 49.087,23.728l-25.359,25.36Z" style="fill:#222;"/><path d="M50.504,59.779c2.516,-0.891 6.398,1.793 8.662,5.989c2.265,4.196 2.059,8.326 -0.457,9.216c-2.517,0.891 -6.399,-1.793 -8.663,-5.989c-2.265,-4.196 -2.059,-8.325 0.458,-9.216Z" style="fill:#fff;"/></g></svg>