<?xml version="1.0" encoding="UTF-8" standalone="no"?><!DOCTYPE svg PUBLIC "-//W3C//DTD SVG 1.1//EN" "http://www.w3.org/Graphics/SVG/1.1/DTD/svg11.dtd"><svg width="100%" height="100%" viewBox="0 0 128 128" version="1.1" xmlns="http://www.w3.org/2000/svg" xmlns:xlink="http://www.w3.org/1999/xlink" xml:space="preserve" xmlns:serif="http://www.serif.com/" style="fill-rule:evenodd;clip-rule:evenodd;stroke-linecap:round;stroke-linejoin:round;stroke-miterlimit:1.5;"><circle cx="64" cy="64" r="64" style="fill:#fff;"/><path d="M64,0c35.323,0 64,28.677 64,64c0,35.323 -28.677,64 -64,64c-35.323,0 -64,-28.677 -64,-64c0,-35.323 28.677,-64 64,-64Zm0,8c-30.907,0 -56,25.093 -56,56c0,30.907 25.093,56 56,56c30.907,0 56,-25.093 56,-56c0,-30.907 -25.093,-56 -56,-56Z"/><g><path d="M63.789,103.297c-0.116,-0 -0.21,0.094 -0.21,0.21l-0,12.572c-0,0.116 0.094,0.211 0.21,0.211l0.422,-0c0.116,-0 0.21,-0.095 0.21,-0.211l0,-12.572c0,-0.116 -0.094,-0.21 -0.21,-0.21l-0.422,-0Z" style="fill:#292929;stroke:#333;stroke-width:7px;"/><path d="M24.786,64.632c0,-0.116 -0.094,-0.211 -0.211,-0.211l-12.571,0c-0.117,0 -0.211,0.095 -0.211,0.211l0,0.422c0,0.116 0.094,0.21 0.211,0.21l12.571,0c0.117,0 0.211,-0.094 0.211,-0.21l0,-0.422Z" style="fill:#292929;stroke:#333;stroke-width:7px;"/><path d="M105.083,64.843l11.148,-0" style="fill:none;stroke:#333;stroke-width:8px;"/></g><g><path d="M119.812,64.729c0,-6.849 -5.56,-12.41 -12.409,-12.41l-38.752,0c-6.849,0 -12.41,5.561 -12.41,12.41c0,6.849 5.561,12.409 12.41,12.409l38.752,0c6.849,0 12.409,-5.56 12.409,-12.409Z" style="fill:none;"/><clipPath id="_clip1"><path d="M119.812,64.729c0,-6.849 -5.56,-12.41 -12.409,-12.41l-38.752,0c-6.849,0 -12.41,5.561 -12.41,12.41c0,6.849 5.561,12.409 12.41,12.409l38.752,0c6.849,0 12.409,-5.56 12.409,-12.409Z"/></clipPath><g clip-path="url(#_clip1)"><rect x="85.241" y="52.447" width="36.348" height="24.819" style="fill:#292929;"/></g><path d="M119.812,64.729c0,6.849 -5.56,12.409 -12.409,12.409l-38.752,0c-6.849,0 -12.41,-5.56 -12.41,-12.409c0,-6.849 5.561,-12.41 12.41,-12.41l38.752,0c6.849,0 12.409,5.561 12.409,12.41Zm-4,-0c0,-4.642 -3.768,-8.41 -8.409,-8.41l-38.752,0c-4.642,0 -8.41,3.768 -8.41,8.41c0,4.641 3.768,8.409 8.41,8.409l38.752,0c4.641,0 8.409,-3.768 8.409,-8.409Z" style="fill:#292929;"/></g><g><ellipse cx="64.001" cy="59.996" rx="17.932" ry="22.655" style="fill:#222;"/><path d="M46.069,59.996c-0.172,-13.476 17.605,-50.087 17.932,-51.49c0.786,1.951 16.909,36.453 17.931,51.49l-35.863,-0Z" style="fill:#222;"/><path d="M58.037,51.719c2.41,1.15 3.257,5.792 1.891,10.36c-1.366,4.568 -4.431,7.343 -6.841,6.193c-2.409,-1.15 -3.256,-5.792 -1.89,-10.36c1.366,-4.568 4.431,-7.343 6.84,-6.193Z" style="fill:#fff;"/></g></svg>